<mxfile host="app.diagrams.net" agent="Mozilla/5.0 (Macintosh; Intel Mac OS X 10_15_7) AppleWebKit/537.36 (KHTML, like Gecko) Chrome/137.0.0.0 Safari/537.36" version="27.1.6">
  <diagram name="第 2 页" id="fi2agyEnk7fNFRMvxoDx">
    <mxGraphModel dx="1248" dy="677" grid="1" gridSize="10" guides="1" tooltips="1" connect="1" arrows="1" fold="1" page="1" pageScale="1" pageWidth="827" pageHeight="1169" math="0" shadow="0">
      <root>
        <mxCell id="0" />
        <mxCell id="1" parent="0" />
        <mxCell id="czYeDoOEgaOZrJxCNVHg-61" style="rounded=0;orthogonalLoop=1;jettySize=auto;html=1;exitX=1;exitY=0.5;exitDx=0;exitDy=0;entryX=0;entryY=0.5;entryDx=0;entryDy=0;" edge="1" parent="1" source="czYeDoOEgaOZrJxCNVHg-63" target="czYeDoOEgaOZrJxCNVHg-95">
          <mxGeometry relative="1" as="geometry">
            <mxPoint x="580" y="300.03" as="sourcePoint" />
            <mxPoint x="640" y="355.02999999999986" as="targetPoint" />
          </mxGeometry>
        </mxCell>
        <mxCell id="czYeDoOEgaOZrJxCNVHg-78" style="edgeStyle=orthogonalEdgeStyle;rounded=0;orthogonalLoop=1;jettySize=auto;html=1;entryX=0;entryY=0.5;entryDx=0;entryDy=0;exitX=1;exitY=0.5;exitDx=0;exitDy=0;" edge="1" parent="1" source="czYeDoOEgaOZrJxCNVHg-95" target="czYeDoOEgaOZrJxCNVHg-77">
          <mxGeometry relative="1" as="geometry">
            <mxPoint x="710" y="355.02999999999986" as="sourcePoint" />
          </mxGeometry>
        </mxCell>
        <mxCell id="czYeDoOEgaOZrJxCNVHg-56" style="rounded=0;orthogonalLoop=1;jettySize=auto;html=1;exitX=1;exitY=0.5;exitDx=0;exitDy=0;entryX=0;entryY=0.5;entryDx=0;entryDy=0;" edge="1" parent="1" source="czYeDoOEgaOZrJxCNVHg-93" target="czYeDoOEgaOZrJxCNVHg-63">
          <mxGeometry relative="1" as="geometry">
            <mxPoint x="349.9999999999993" y="355.03" as="sourcePoint" />
            <mxPoint x="440" y="300.03" as="targetPoint" />
          </mxGeometry>
        </mxCell>
        <mxCell id="czYeDoOEgaOZrJxCNVHg-63" value="Broker" style="rounded=1;whiteSpace=wrap;html=1;fillColor=#ffe6cc;strokeColor=#d79b00;" vertex="1" parent="1">
          <mxGeometry x="440" y="325.03" width="120" height="60" as="geometry" />
        </mxCell>
        <mxCell id="czYeDoOEgaOZrJxCNVHg-64" value="Backend" style="rounded=1;whiteSpace=wrap;html=1;fillColor=#f8cecc;strokeColor=#b85450;" vertex="1" parent="1">
          <mxGeometry x="260" y="450.03" width="790" height="35" as="geometry" />
        </mxCell>
        <mxCell id="czYeDoOEgaOZrJxCNVHg-70" style="edgeStyle=orthogonalEdgeStyle;rounded=0;orthogonalLoop=1;jettySize=auto;html=1;exitX=0.5;exitY=1;exitDx=0;exitDy=0;entryX=0.063;entryY=0.017;entryDx=0;entryDy=0;entryPerimeter=0;" edge="1" parent="1" source="czYeDoOEgaOZrJxCNVHg-93" target="czYeDoOEgaOZrJxCNVHg-64">
          <mxGeometry relative="1" as="geometry">
            <mxPoint x="305" y="380.03" as="sourcePoint" />
          </mxGeometry>
        </mxCell>
        <mxCell id="czYeDoOEgaOZrJxCNVHg-74" value="1️⃣任务状态&lt;div&gt;&lt;b&gt;&lt;i&gt;&lt;font style=&quot;color: rgb(204, 0, 0);&quot;&gt;PENDING&lt;/font&gt;&lt;/i&gt;&lt;/b&gt;&lt;/div&gt;" style="edgeLabel;html=1;align=center;verticalAlign=middle;resizable=0;points=[];" vertex="1" connectable="0" parent="czYeDoOEgaOZrJxCNVHg-70">
          <mxGeometry x="0.0017" y="1" relative="1" as="geometry">
            <mxPoint x="-1" as="offset" />
          </mxGeometry>
        </mxCell>
        <mxCell id="czYeDoOEgaOZrJxCNVHg-72" value="2️⃣发布任务" style="text;html=1;align=center;verticalAlign=middle;resizable=0;points=[];autosize=1;strokeColor=none;fillColor=none;" vertex="1" parent="1">
          <mxGeometry x="350" y="330.03" width="80" height="30" as="geometry" />
        </mxCell>
        <mxCell id="czYeDoOEgaOZrJxCNVHg-73" value="3️⃣取出任务" style="text;html=1;align=center;verticalAlign=middle;resizable=0;points=[];autosize=1;strokeColor=none;fillColor=none;" vertex="1" parent="1">
          <mxGeometry x="553" y="330.03" width="80" height="30" as="geometry" />
        </mxCell>
        <mxCell id="czYeDoOEgaOZrJxCNVHg-84" style="edgeStyle=orthogonalEdgeStyle;rounded=0;orthogonalLoop=1;jettySize=auto;html=1;exitX=1;exitY=0.5;exitDx=0;exitDy=0;entryX=0;entryY=0.5;entryDx=0;entryDy=0;" edge="1" parent="1" source="czYeDoOEgaOZrJxCNVHg-77" target="czYeDoOEgaOZrJxCNVHg-83">
          <mxGeometry relative="1" as="geometry" />
        </mxCell>
        <mxCell id="czYeDoOEgaOZrJxCNVHg-77" value="6️⃣构造任务对象" style="rounded=0;whiteSpace=wrap;html=1;fillColor=#e1d5e7;strokeColor=#9673a6;" vertex="1" parent="1">
          <mxGeometry x="760" y="332.53" width="100" height="45" as="geometry" />
        </mxCell>
        <mxCell id="czYeDoOEgaOZrJxCNVHg-79" value="5️⃣执行" style="text;html=1;align=center;verticalAlign=middle;resizable=0;points=[];autosize=1;strokeColor=none;fillColor=none;" vertex="1" parent="1">
          <mxGeometry x="700" y="332.53" width="60" height="30" as="geometry" />
        </mxCell>
        <mxCell id="czYeDoOEgaOZrJxCNVHg-80" style="edgeStyle=orthogonalEdgeStyle;rounded=0;orthogonalLoop=1;jettySize=auto;html=1;entryX=0.699;entryY=-0.026;entryDx=0;entryDy=0;entryPerimeter=0;exitX=0.5;exitY=1;exitDx=0;exitDy=0;" edge="1" parent="1" source="czYeDoOEgaOZrJxCNVHg-77" target="czYeDoOEgaOZrJxCNVHg-64">
          <mxGeometry relative="1" as="geometry">
            <mxPoint x="814" y="380.03" as="sourcePoint" />
          </mxGeometry>
        </mxCell>
        <mxCell id="czYeDoOEgaOZrJxCNVHg-82" value="7️⃣任务状态&lt;div&gt;&lt;font color=&quot;#cc0000&quot;&gt;&lt;b&gt;&lt;i&gt;STARTED&lt;/i&gt;&lt;/b&gt;&lt;/font&gt;&lt;/div&gt;" style="edgeLabel;html=1;align=center;verticalAlign=middle;resizable=0;points=[];" vertex="1" connectable="0" parent="czYeDoOEgaOZrJxCNVHg-80">
          <mxGeometry x="-0.1629" relative="1" as="geometry">
            <mxPoint y="2" as="offset" />
          </mxGeometry>
        </mxCell>
        <mxCell id="czYeDoOEgaOZrJxCNVHg-88" style="edgeStyle=orthogonalEdgeStyle;rounded=0;orthogonalLoop=1;jettySize=auto;html=1;exitX=0.5;exitY=0;exitDx=0;exitDy=0;entryX=0.5;entryY=0;entryDx=0;entryDy=0;" edge="1" parent="1" source="czYeDoOEgaOZrJxCNVHg-83" target="czYeDoOEgaOZrJxCNVHg-63">
          <mxGeometry relative="1" as="geometry">
            <Array as="points">
              <mxPoint x="916" y="290.03" />
              <mxPoint x="500" y="290.03" />
            </Array>
          </mxGeometry>
        </mxCell>
        <mxCell id="czYeDoOEgaOZrJxCNVHg-89" value="1️⃣1️⃣重试任务&lt;div&gt;（重新发布任务）&lt;/div&gt;" style="edgeLabel;html=1;align=center;verticalAlign=middle;resizable=0;points=[];" vertex="1" connectable="0" parent="czYeDoOEgaOZrJxCNVHg-88">
          <mxGeometry x="-0.0035" y="2" relative="1" as="geometry">
            <mxPoint as="offset" />
          </mxGeometry>
        </mxCell>
        <mxCell id="czYeDoOEgaOZrJxCNVHg-91" style="edgeStyle=orthogonalEdgeStyle;rounded=0;orthogonalLoop=1;jettySize=auto;html=1;exitX=1;exitY=0.5;exitDx=0;exitDy=0;entryX=0.952;entryY=0.073;entryDx=0;entryDy=0;entryPerimeter=0;" edge="1" parent="1" source="czYeDoOEgaOZrJxCNVHg-83" target="czYeDoOEgaOZrJxCNVHg-64">
          <mxGeometry relative="1" as="geometry">
            <mxPoint x="1010" y="380.03" as="targetPoint" />
            <Array as="points">
              <mxPoint x="1012" y="355.03" />
            </Array>
          </mxGeometry>
        </mxCell>
        <mxCell id="czYeDoOEgaOZrJxCNVHg-92" value="1️⃣0️⃣任务状态&lt;div&gt;&lt;font color=&quot;#cc0000&quot;&gt;&lt;b&gt;&lt;i&gt;RETRY&lt;/i&gt;&lt;/b&gt;&lt;/font&gt;&lt;/div&gt;" style="edgeLabel;html=1;align=center;verticalAlign=middle;resizable=0;points=[];" vertex="1" connectable="0" parent="czYeDoOEgaOZrJxCNVHg-91">
          <mxGeometry x="0.3923" relative="1" as="geometry">
            <mxPoint as="offset" />
          </mxGeometry>
        </mxCell>
        <mxCell id="czYeDoOEgaOZrJxCNVHg-83" value="8️⃣反射调用" style="rounded=0;whiteSpace=wrap;html=1;fillColor=#e1d5e7;strokeColor=#9673a6;" vertex="1" parent="1">
          <mxGeometry x="880" y="332.53" width="73" height="45" as="geometry" />
        </mxCell>
        <mxCell id="czYeDoOEgaOZrJxCNVHg-85" style="edgeStyle=orthogonalEdgeStyle;rounded=0;orthogonalLoop=1;jettySize=auto;html=1;exitX=0.5;exitY=1;exitDx=0;exitDy=0;" edge="1" parent="1" source="czYeDoOEgaOZrJxCNVHg-83">
          <mxGeometry relative="1" as="geometry">
            <mxPoint x="917" y="449.03" as="targetPoint" />
          </mxGeometry>
        </mxCell>
        <mxCell id="czYeDoOEgaOZrJxCNVHg-86" value="&lt;span style=&quot;color: rgba(0, 0, 0, 0); font-family: monospace; font-size: 0px; text-align: start; background-color: rgb(236, 236, 236);&quot;&gt;%3CmxGraphModel%3E%3Croot%3E%3CmxCell%20id%3D%220%22%2F%3E%3CmxCell%20id%3D%221%22%20parent%3D%220%22%2F%3E%3CmxCell%20id%3D%222%22%20value%3D%227%EF%B8%8F%E2%83%A3%E4%BB%BB%E5%8A%A1%E7%8A%B6%E6%80%81%26lt%3Bdiv%26gt%3B%26lt%3Bfont%20color%3D%26quot%3B%23cc0000%26quot%3B%26gt%3B%26lt%3Bb%26gt%3B%26lt%3Bi%26gt%3BSTARTED%26lt%3B%2Fi%26gt%3B%26lt%3B%2Fb%26gt%3B%26lt%3B%2Ffont%26gt%3B%26lt%3B%2Fdiv%26gt%3B%22%20style%3D%22edgeLabel%3Bhtml%3D1%3Balign%3Dcenter%3BverticalAlign%3Dmiddle%3Bresizable%3D0%3Bpoints%3D%5B%5D%3B%22%20vertex%3D%221%22%20connectable%3D%220%22%20parent%3D%221%22%3E%3CmxGeometry%20x%3D%22750.0301990704975%22%20y%3D%22171.22412355737254%22%20as%3D%22geometry%22%2F%3E%3C%2FmxCell%3E%3C%2Froot%3E%3C%2FmxGraphModel%3E&lt;/span&gt;" style="edgeLabel;html=1;align=center;verticalAlign=middle;resizable=0;points=[];" vertex="1" connectable="0" parent="czYeDoOEgaOZrJxCNVHg-85">
          <mxGeometry x="-0.062" relative="1" as="geometry">
            <mxPoint as="offset" />
          </mxGeometry>
        </mxCell>
        <mxCell id="czYeDoOEgaOZrJxCNVHg-87" value="9️⃣任务状态&lt;div&gt;&lt;font style=&quot;color: rgb(204, 0, 0);&quot;&gt;&lt;b&gt;&lt;i&gt;SUCCESS&lt;/i&gt;&lt;/b&gt;&lt;/font&gt;&lt;/div&gt;&lt;div&gt;&lt;font style=&quot;color: rgb(0, 0, 0);&quot;&gt;或&lt;/font&gt;&lt;/div&gt;&lt;div&gt;&lt;font style=&quot;color: rgb(204, 0, 0);&quot;&gt;&lt;b&gt;&lt;i&gt;FAILURE&lt;/i&gt;&lt;/b&gt;&lt;/font&gt;&lt;/div&gt;" style="edgeLabel;html=1;align=center;verticalAlign=middle;resizable=0;points=[];" vertex="1" connectable="0" parent="czYeDoOEgaOZrJxCNVHg-85">
          <mxGeometry x="-0.158" y="-2" relative="1" as="geometry">
            <mxPoint y="3" as="offset" />
          </mxGeometry>
        </mxCell>
        <mxCell id="czYeDoOEgaOZrJxCNVHg-93" value="Server" style="rounded=1;whiteSpace=wrap;html=1;fillColor=#dae8fc;strokeColor=#6c8ebf;" vertex="1" parent="1">
          <mxGeometry x="270" y="332.53" width="80" height="45" as="geometry" />
        </mxCell>
        <mxCell id="czYeDoOEgaOZrJxCNVHg-95" value="Worker" style="rounded=1;whiteSpace=wrap;html=1;fillColor=#e1d5e7;strokeColor=#9673a6;" vertex="1" parent="1">
          <mxGeometry x="630" y="332.53" width="80" height="45" as="geometry" />
        </mxCell>
        <mxCell id="czYeDoOEgaOZrJxCNVHg-96" style="edgeStyle=orthogonalEdgeStyle;rounded=0;orthogonalLoop=1;jettySize=auto;html=1;exitX=0.5;exitY=1;exitDx=0;exitDy=0;entryX=0.519;entryY=0;entryDx=0;entryDy=0;entryPerimeter=0;" edge="1" parent="1" source="czYeDoOEgaOZrJxCNVHg-95" target="czYeDoOEgaOZrJxCNVHg-64">
          <mxGeometry relative="1" as="geometry" />
        </mxCell>
        <mxCell id="czYeDoOEgaOZrJxCNVHg-97" value="4️⃣任务状态&lt;div&gt;&lt;b&gt;&lt;i&gt;&lt;font style=&quot;color: rgb(204, 0, 0);&quot;&gt;RECEIVED&lt;/font&gt;&lt;/i&gt;&lt;/b&gt;&lt;/div&gt;" style="edgeLabel;html=1;align=center;verticalAlign=middle;resizable=0;points=[];" vertex="1" connectable="0" parent="czYeDoOEgaOZrJxCNVHg-96">
          <mxGeometry x="-0.1063" relative="1" as="geometry">
            <mxPoint as="offset" />
          </mxGeometry>
        </mxCell>
        <mxCell id="czYeDoOEgaOZrJxCNVHg-98" value="&lt;div style=&quot;line-height: 40%;&quot;&gt;&lt;p style=&quot;font-family: DengXian;&quot;&gt;&lt;br&gt;&lt;/p&gt;&lt;/div&gt;" style="shape=callout;whiteSpace=wrap;html=1;perimeter=calloutPerimeter;spacing=0;align=left;size=60;position=0.3;base=42;position2=0.51;" vertex="1" parent="1">
          <mxGeometry x="270" y="70" width="370" height="270" as="geometry" />
        </mxCell>
        <mxCell id="czYeDoOEgaOZrJxCNVHg-99" value="" style="shape=callout;whiteSpace=wrap;html=1;perimeter=calloutPerimeter;flipH=0;flipV=1;size=30;position=0.45;position2=0.43;" vertex="1" parent="1">
          <mxGeometry x="560" y="470" width="320" height="170" as="geometry" />
        </mxCell>
        <mxCell id="czYeDoOEgaOZrJxCNVHg-100" value="&lt;div style=&quot;background-color: rgb(255, 255, 255); font-family: Menlo, Monaco, &amp;quot;Courier New&amp;quot;, monospace; white-space-collapse: preserve;&quot;&gt;&lt;div&gt;&lt;span style=&quot;color: rgb(0, 0, 255);&quot;&gt;type&lt;/span&gt; &lt;span style=&quot;color: rgb(38, 127, 153);&quot;&gt;TaskState&lt;/span&gt; &lt;span style=&quot;color: rgb(0, 0, 255);&quot;&gt;struct&lt;/span&gt; {&lt;/div&gt;&lt;div&gt;    &lt;span style=&quot;color: rgb(0, 16, 128);&quot;&gt;TaskUUID&lt;/span&gt;  &lt;span style=&quot;color: rgb(38, 127, 153);&quot;&gt;string&lt;/span&gt;        &lt;span style=&quot;color: rgb(0, 128, 0);&quot;&gt;// 等于 signature.UUID&lt;/span&gt;&lt;/div&gt;&lt;div&gt;    &lt;span style=&quot;color: rgb(0, 16, 128);&quot;&gt;TaskName&lt;/span&gt;  &lt;span style=&quot;color: rgb(38, 127, 153);&quot;&gt;string&lt;/span&gt;        &lt;span style=&quot;color: rgb(0, 128, 0);&quot;&gt;// 等于 Signature.Name&lt;/span&gt;&lt;/div&gt;&lt;div&gt;    &lt;span style=&quot;color: rgb(0, 16, 128);&quot;&gt;State&lt;/span&gt;     &lt;span style=&quot;color: rgb(38, 127, 153);&quot;&gt;string&lt;/span&gt;        &lt;span style=&quot;color: rgb(0, 128, 0);&quot;&gt;// 任务状态&lt;/span&gt;&lt;/div&gt;&lt;div&gt;    &lt;span style=&quot;color: rgb(0, 16, 128);&quot;&gt;Results&lt;/span&gt;   []*&lt;span style=&quot;color: rgb(38, 127, 153);&quot;&gt;TaskResult&lt;/span&gt; &lt;span style=&quot;color: rgb(0, 128, 0);&quot;&gt;// 任务执行结果&lt;/span&gt;&lt;/div&gt;&lt;div&gt;    &lt;span style=&quot;color: rgb(0, 16, 128);&quot;&gt;Error&lt;/span&gt;     &lt;span style=&quot;color: rgb(38, 127, 153);&quot;&gt;string&lt;/span&gt;        &lt;span style=&quot;color: rgb(0, 128, 0);&quot;&gt;// 错误信息字符串&lt;/span&gt;&lt;/div&gt;&lt;div&gt;    &lt;span style=&quot;color: rgb(0, 16, 128);&quot;&gt;CreatedAt&lt;/span&gt; &lt;span style=&quot;color: rgb(38, 127, 153);&quot;&gt;time&lt;/span&gt;.&lt;span style=&quot;color: rgb(38, 127, 153);&quot;&gt;Time&lt;/span&gt;     &lt;span style=&quot;color: rgb(0, 128, 0);&quot;&gt;// 任务状态的创建时间&lt;/span&gt;&lt;/div&gt;&lt;div&gt;    &lt;span style=&quot;color: rgb(0, 16, 128);&quot;&gt;TTL&lt;/span&gt;       &lt;span style=&quot;color: rgb(38, 127, 153);&quot;&gt;int64&lt;/span&gt;         &lt;span style=&quot;color: rgb(0, 128, 0);&quot;&gt;// 任务状态的存活时间（秒）&lt;/span&gt;&lt;/div&gt;&lt;div&gt;}&lt;/div&gt;&lt;/div&gt;" style="text;html=1;align=left;verticalAlign=middle;resizable=0;points=[];autosize=1;strokeColor=none;fillColor=none;fontSize=10;spacing=1;" vertex="1" parent="1">
          <mxGeometry x="570" y="510" width="330" height="120" as="geometry" />
        </mxCell>
        <mxCell id="czYeDoOEgaOZrJxCNVHg-101" value="&lt;div style=&quot;background-color: rgb(255, 255, 255); font-family: Menlo, Monaco, &amp;quot;Courier New&amp;quot;, monospace; white-space-collapse: preserve;&quot;&gt;&lt;div&gt;&lt;span style=&quot;color: rgb(0, 0, 255);&quot;&gt;type&lt;/span&gt; &lt;span style=&quot;color: rgb(38, 127, 153);&quot;&gt;Signature&lt;/span&gt; &lt;span style=&quot;color: rgb(0, 0, 255);&quot;&gt;struct&lt;/span&gt; {&lt;/div&gt;&lt;div&gt;    &lt;span style=&quot;color: rgb(0, 16, 128);&quot;&gt;UUID&lt;/span&gt;           &lt;span style=&quot;color: rgb(38, 127, 153);&quot;&gt;string&lt;/span&gt;       &lt;span style=&quot;color: rgb(0, 128, 0);&quot;&gt;// 任务唯一 ID&lt;/span&gt;&lt;/div&gt;&lt;div&gt;    &lt;span style=&quot;color: rgb(0, 16, 128);&quot;&gt;Name&lt;/span&gt;           &lt;span style=&quot;color: rgb(38, 127, 153);&quot;&gt;string&lt;/span&gt;       &lt;span style=&quot;color: rgb(0, 128, 0);&quot;&gt;// 任务名称&lt;/span&gt;&lt;/div&gt;&lt;div&gt;    &lt;span style=&quot;color: rgb(0, 16, 128);&quot;&gt;RoutingKey&lt;/span&gt;     &lt;span style=&quot;color: rgb(38, 127, 153);&quot;&gt;string&lt;/span&gt;       &lt;span style=&quot;color: rgb(0, 128, 0);&quot;&gt;// 路由键（队列名）&lt;/span&gt;&lt;/div&gt;&lt;div&gt;    &lt;span style=&quot;color: rgb(0, 16, 128);&quot;&gt;ETA&lt;/span&gt;            *&lt;span style=&quot;color: rgb(38, 127, 153);&quot;&gt;time&lt;/span&gt;.&lt;span style=&quot;color: rgb(38, 127, 153);&quot;&gt;Time&lt;/span&gt;   &lt;span style=&quot;color: rgb(0, 128, 0);&quot;&gt;// 任务计划执行时间&lt;/span&gt;&lt;/div&gt;&lt;div&gt;    &lt;span style=&quot;color: rgb(0, 16, 128);&quot;&gt;GroupUUID&lt;/span&gt;      &lt;span style=&quot;color: rgb(38, 127, 153);&quot;&gt;string&lt;/span&gt;       &lt;span style=&quot;color: rgb(0, 128, 0);&quot;&gt;// 任务组 ID&lt;/span&gt;&lt;/div&gt;&lt;div&gt;    &lt;span style=&quot;color: rgb(0, 16, 128);&quot;&gt;GroupTaskCount&lt;/span&gt; &lt;span style=&quot;color: rgb(38, 127, 153);&quot;&gt;int&lt;/span&gt;          &lt;span style=&quot;color: rgb(0, 128, 0);&quot;&gt;// 任务组内任务数&lt;/span&gt;&lt;/div&gt;&lt;div&gt;    &lt;span style=&quot;color: rgb(0, 16, 128);&quot;&gt;Args&lt;/span&gt;           []&lt;span style=&quot;color: rgb(38, 127, 153);&quot;&gt;Arg&lt;/span&gt;        &lt;span style=&quot;color: rgb(0, 128, 0);&quot;&gt;// 任务参数&lt;/span&gt;&lt;/div&gt;&lt;div&gt;    &lt;span style=&quot;color: rgb(0, 16, 128);&quot;&gt;RetryCount&lt;/span&gt;     &lt;span style=&quot;color: rgb(38, 127, 153);&quot;&gt;int&lt;/span&gt;          &lt;span style=&quot;color: rgb(0, 128, 0);&quot;&gt;// 任务重试次数&lt;/span&gt;&lt;/div&gt;&lt;div&gt;    &lt;span style=&quot;color: rgb(0, 16, 128);&quot;&gt;RetryTimeout&lt;/span&gt;   &lt;span style=&quot;color: rgb(38, 127, 153);&quot;&gt;int&lt;/span&gt;          &lt;span style=&quot;color: rgb(0, 128, 0);&quot;&gt;// 任务重试间隔（单位秒）&lt;/span&gt;&lt;/div&gt;&lt;div&gt;    &lt;span style=&quot;color: rgb(0, 16, 128);&quot;&gt;OnSuccess&lt;/span&gt;      []*&lt;span style=&quot;color: rgb(38, 127, 153);&quot;&gt;Signature&lt;/span&gt; &lt;span style=&quot;color: rgb(0, 128, 0);&quot;&gt;// 成功回调&lt;/span&gt;&lt;/div&gt;&lt;div&gt;    &lt;span style=&quot;color: rgb(0, 16, 128);&quot;&gt;OnError&lt;/span&gt;        []*&lt;span style=&quot;color: rgb(38, 127, 153);&quot;&gt;Signature&lt;/span&gt; &lt;span style=&quot;color: rgb(0, 128, 0);&quot;&gt;// 失败回调&lt;/span&gt;&lt;/div&gt;&lt;div&gt;    &lt;span style=&quot;color: rgb(0, 16, 128);&quot;&gt;ChordCallback&lt;/span&gt;  *&lt;span style=&quot;color: rgb(38, 127, 153);&quot;&gt;Signature&lt;/span&gt;   &lt;span style=&quot;color: rgb(0, 128, 0);&quot;&gt;// Chord 回调&lt;/span&gt;&lt;/div&gt;&lt;div&gt;    &lt;span style=&quot;color: rgb(0, 16, 128);&quot;&gt;IgnoreWhenTaskNotRegistered&lt;/span&gt; &lt;span style=&quot;color: rgb(38, 127, 153);&quot;&gt;bool&lt;/span&gt; &lt;span style=&quot;color: rgb(0, 128, 0);&quot;&gt;// 是否忽略未注册的任务&lt;/span&gt;&lt;/div&gt;&lt;div&gt;}&lt;/div&gt;&lt;/div&gt;" style="text;html=1;align=left;verticalAlign=middle;resizable=0;points=[];autosize=1;strokeColor=none;fillColor=none;fontSize=10;spacing=0;" vertex="1" parent="1">
          <mxGeometry x="280" y="80" width="360" height="190" as="geometry" />
        </mxCell>
      </root>
    </mxGraphModel>
  </diagram>
</mxfile>
